<?xml version="1.0" encoding="UTF-8"?>
<!DOCTYPE svg PUBLIC "-//W3C//DTD SVG 1.1//EN" "http://www.w3.org/Graphics/SVG/1.1/DTD/svg11.dtd">
<!-- Creator: CorelDRAW 2018 (64-Bit) -->
<svg xmlns="http://www.w3.org/2000/svg" xml:space="preserve" width="458.669mm" height="312.857mm" version="1.1" style="shape-rendering:geometricPrecision; text-rendering:geometricPrecision; image-rendering:optimizeQuality; fill-rule:evenodd; clip-rule:evenodd"
viewBox="0 0 45866.94 31285.69"
 xmlns:xlink="http://www.w3.org/1999/xlink">
 <defs>
  <style type="text/css">
   <![CDATA[
    .fil1 {fill:#FEFEFE}
    .fil0 {fill:#D90000}
    .fil2 {fill:#FEFEFE;fill-rule:nonzero}
   ]]>
  </style>
 </defs>
 <g id="Layer_x0020_1">
  <metadata id="CorelCorpID_0Corel-Layer"/>
  <g id="_3116267712688">
   <circle class="fil0" cx="11777.55" cy="7316.62" r="2223.52"/>
   <path class="fil1" d="M23196.63 0c7302.7,0 13222.71,5920.01 13222.71,13222.71 0,3608.81 -1446.36,6879.35 -3790.22,9265.25l0 -2078.32c1618.09,-2047.16 2584.25,-4633.34 2584.25,-7445.35 0,-6636.68 -5380.06,-12016.74 -12016.74,-12016.74 -3529.78,0 -6703.97,1521.98 -8902.46,3945.35 -239.62,-248.7 -515.76,-461.94 -819.78,-631.17 2416.1,-2620.04 5877.23,-4261.73 9722.24,-4261.73zm-10207.77 21628.04c-1883.57,-2284.86 -3014.94,-5212.96 -3014.94,-8405.33 0,-945.42 99.95,-1867.43 288.6,-2756.58 343.94,165.75 719.24,276.54 1114.52,321.65 -129.17,705.94 -197.15,1433.25 -197.15,2176.51 0,2328.18 662.8,4501.22 1808.97,6342.08l0 2321.67z"/>
   <path class="fil1" d="M17575.81 12641.29l8918 0 -3.14 -17.21 0.69 0.01c648.2,0 1173.67,-525.47 1173.67,-1173.67 0,-648.2 -525.47,-1173.68 -1173.67,-1173.68l-0.8 0.02 0.8 -4.38 -12735.58 0 0 -18.87c917.36,-629.74 1519.15,-1805.32 1519.15,-2882.57 0,-1077.24 -356.69,-1846.85 -980.76,-2478.04l12197.19 21.54c3827.07,164.01 6535.97,2000.21 6535.97,6535.98 0,2957.36 -2215.31,5763.49 -5168.45,6392.23 -1514.57,240.59 -3258.13,107.22 -4813.09,107.22l0 7881.83c-2817.42,2.22 -5237.1,-1333.37 -5469.98,-4963.89l0 -8226.52z"/>
   <path class="fil2" d="M-0 26864.47l988.03 0c476.35,0 793.21,8.22 950.57,23.74 411.06,41.07 696.87,139.67 855.29,296.68 140.24,137.86 224.79,329.56 254.77,575.13 6.42,55.69 9.64,265.65 9.64,631.73l0 1516.33c0,385.24 -22.48,645.42 -66.38,780.53 -79.2,246.49 -285.81,400.76 -617.65,462.84 -153.06,28.3 -388.58,42.91 -708.64,42.91l-1665.63 0 0 -4329.89zm1319.86 740.36l0 2848.25c218.38,0 350.05,-61.16 396.07,-184.41 13.94,-39.25 21.42,-187.14 21.42,-443.67l0 -1682.47c0,-168.89 0,-258.36 0,-267.48 -13.92,-119.59 -55.66,-196.28 -122.03,-230.05 -54.6,-26.48 -153.08,-40.17 -295.46,-40.17zm5784.3 -740.36l755.75 4329.89 -1351.99 0 -65.3 -778.7 -474.22 0 -78.15 778.7 -1366.98 0 671.19 -4329.89 1909.7 0zm-699.01 2784.35c-63.15,-465.58 -129.53,-1070.84 -201.26,-1816.68 -127.38,794.22 -210.88,1399.48 -250.47,1816.68l451.73 0zm4902.23 -2784.35l0 866.34 -783.56 0 0 3463.55 -1319.88 0 0 -3463.55 -781.44 0 0 -866.34 2884.88 0zm3342.58 0l755.76 4329.89 -1351.99 0 -65.3 -778.7 -474.21 0 -78.16 778.7 -1366.97 0 671.18 -4329.89 1909.69 0zm-699 2784.35c-63.16,-465.58 -129.52,-1070.84 -201.25,-1816.68 -127.39,794.22 -210.88,1399.48 -250.48,1816.68l451.73 0zm5347.86 -2784.35l1329.51 0c642.27,0 1062.97,93.11 1264.21,280.25 112.4,107.72 187.33,254.71 222.66,441.85 19.27,101.33 27.83,264.75 27.83,489.31l0 377.03c0,241.01 -21.4,415.38 -65.3,524.01 -67.43,169.79 -202.31,293.96 -404.63,371.55 -177.7,68.47 -411.07,102.25 -699,102.25l-355.4 0 0 1743.64 -1319.88 0 0 -4329.89zm1319.88 740.36l0 1101.87c46.02,0 79.2,0.91 97.4,2.74 140.24,0 232.29,-37.42 276.19,-112.29 31.04,-51.11 47.09,-145.15 47.09,-280.25l0 -356.04c0,-146.07 -26.76,-241.01 -80.28,-284.82 -52.45,-43.83 -165.92,-67.56 -340.4,-71.21zm6196.41 1794.76c0,424.51 -3.2,669.17 -9.61,733.07 -29.98,292.13 -114.55,521.26 -254.78,687.4 -261.2,310.39 -681.88,465.58 -1263.14,465.58 -570.57,0 -989.12,-151.53 -1254.58,-454.62 -146.66,-167.97 -234.44,-398.03 -263.34,-690.16 -6.42,-59.33 -9.63,-305.81 -9.63,-741.27l0 -740.36c0,-435.46 3.21,-680.12 9.63,-733.06 26.77,-290.3 110.27,-519.44 250.49,-687.42 259.04,-310.38 681.89,-465.58 1267.43,-465.58 568.41,0 986.96,151.55 1254.58,454.64 145.57,166.14 233.36,396.18 263.34,690.14 6.41,59.35 9.61,305.82 9.61,741.28l0 740.36zm-1320.93 -1422.29c0,-160.68 -3.21,-256.53 -9.65,-286.66 -22.46,-121.42 -86.7,-182.58 -190.53,-184.41 -69.58,-1.81 -122.04,20.09 -158.43,66.65 -37.46,46.56 -55.66,180.75 -55.66,404.42l0 2021.16c0,225.48 0,335.95 0,332.29 21.41,147.9 88.83,221.84 204.45,221.84 114.55,0 184.12,-80.34 206.61,-241.01 2.13,-10.95 3.21,-125.98 3.21,-345.07l0 -1989.21zm4406.6 -1112.83l0 3463.55 802.86 0 0 866.34 -2122.72 0 0 -4329.89 1319.86 0zm3717.24 0l0 4329.89 -1319.87 0 0 -4329.89 1319.87 0zm4464.42 0l0 866.34 -783.58 0 0 3463.55 -1319.86 0 0 -3463.55 -781.45 0 0 -866.34 2884.89 0zm2896.18 0l0 4329.89 -1319.86 0 0 -4329.89 1319.86 0zm4888.32 1887.87l-1319.86 0 0 -754.05c0,-217.28 -14.99,-353.29 -43.89,-408.06 -29.98,-53.87 -90.99,-82.17 -185.19,-84 -129.53,-1.81 -210.88,63.91 -241.93,198.1 -6.42,31.95 -9.63,141.5 -9.63,328.65l0 2011.13c0,178.01 4.28,284.82 12.85,318.59 26.76,126.9 103.82,189.89 229.06,189.89 125.25,0 201.25,-71.21 229.08,-214.54 6.43,-30.12 9.65,-141.5 9.65,-334.11l0 -542.26 1319.86 0 0 167.96c0,392.56 -21.4,662.77 -65.29,810.67 -80.28,267.48 -260.12,478.35 -539.51,633.54 -253.7,138.77 -566.28,209.98 -937.73,211.79 -381.09,1.83 -700.07,-58.41 -956.98,-179.84 -278.32,-129.62 -460.31,-341.42 -545.95,-633.55 -50.3,-167.97 -74.92,-439.1 -74.92,-816.13l0 -1264.37c0,-301.26 7.49,-501.18 21.4,-599.78 34.27,-222.75 113.47,-407.15 238.71,-553.22 265.49,-308.56 692.61,-463.75 1279.2,-465.58 322.21,-1.83 610.17,47.47 862.8,146.99 302.94,119.58 503.13,295.77 599.46,527.65 79.21,189.89 118.81,488.4 118.81,892.82l0 411.71z"/>
  </g>
 </g>
</svg>
